<?xml version="1.0" standalone="no"?>
<!DOCTYPE svg PUBLIC "-//W3C//DTD SVG 20010904//EN"
 "http://www.w3.org/TR/2001/REC-SVG-20010904/DTD/svg10.dtd">
<svg version="1.0" xmlns="http://www.w3.org/2000/svg"
 width="200.000000pt" height="200.000000pt" viewBox="0 0 200.000000 200.000000"
 preserveAspectRatio="xMidYMid meet">

<g transform="translate(0.000000,200.000000) scale(0.100000,-0.100000)"
fill="#000000" stroke="none">
<path d="M895 1956 c-22 -7 -56 -21 -75 -31 -68 -35 -546 -318 -578 -342 -45
-34 -87 -93 -113 -162 -22 -54 -22 -66 -20 -419 2 -267 6 -376 16 -408 19 -65
59 -127 109 -171 62 -53 620 -369 679 -384 75 -18 182 -7 247 26 120 60 575
332 616 368 51 45 101 140 112 212 4 28 5 208 2 400 l-5 351 -33 66 c-21 42
-50 82 -80 109 -55 48 -583 354 -657 381 -58 20 -162 22 -220 4z m313 -511 c2
-18 -223 -775 -248 -832 -9 -21 -17 -23 -75 -23 -48 0 -67 4 -71 15 -4 10 207
726 251 853 3 9 24 12 72 10 59 -3 68 -6 71 -23z m196 -265 l166 -79 0 -84 c0
-56 -4 -88 -12 -94 -7 -6 -86 -45 -176 -87 -189 -89 -195 -89 -190 3 3 62 -3
57 153 129 88 41 83 55 -40 110 -55 24 -103 49 -107 55 -9 14 -10 89 -2 111 3
9 14 16 24 16 9 0 92 -36 184 -80z m-600 54 c8 -22 7 -97 -2 -111 -4 -6 -52
-31 -107 -55 -123 -55 -128 -69 -40 -110 155 -71 150 -67 153 -124 2 -37 -2
-56 -13 -67 -17 -18 -30 -13 -260 99 l-100 49 -3 88 -3 88 163 79 c168 81 202
91 212 64z"/>
</g>
</svg>
